<svg width="18" height="18" viewBox="0 0 18 18" fill="none" xmlns="http://www.w3.org/2000/svg">
<circle cx="9" cy="9" r="8.5" fill="white" stroke="#00057E"/>
<path d="M6.29688 5.72727H7.81676L6.97869 10.8089C6.8982 11.2801 6.72775 11.6873 6.46733 12.0305C6.20691 12.3714 5.87666 12.6354 5.47656 12.8224C5.07647 13.0071 4.63021 13.0994 4.13778 13.0994C3.69508 13.0994 3.30682 13.0213 2.97301 12.8651C2.64157 12.7088 2.39654 12.4721 2.23793 12.1548C2.08168 11.8376 2.04261 11.4375 2.12074 10.9545H3.64062C3.61695 11.151 3.62879 11.3168 3.67614 11.4517C3.72585 11.5866 3.8099 11.6896 3.92827 11.7607C4.04664 11.8317 4.1946 11.8672 4.37216 11.8672C4.56392 11.8672 4.73438 11.8258 4.88352 11.7429C5.03267 11.66 5.15578 11.5381 5.25284 11.3771C5.35227 11.2161 5.42211 11.0196 5.46236 10.7876L6.29688 5.72727ZM7.88068 13L9.08807 5.72727H10.6257L10.1286 8.72798H13.25L13.7472 5.72727H15.2812L14.0739 13H12.5398L13.0369 9.99574H9.91548L9.41832 13H7.88068Z" fill="#00057E"/>
</svg>
